<svg width="28" height="28" viewBox="0 0 28 28" fill="none" xmlns="http://www.w3.org/2000/svg">
<path d="M18.2178 14.0645C18.2178 14.151 18.1995 14.2331 18.1631 14.3105C18.1312 14.3835 18.0833 14.4518 18.0195 14.5156L12.6055 19.8135C12.4824 19.9365 12.332 19.998 12.1543 19.998C12.0404 19.998 11.9355 19.9707 11.8398 19.916C11.7441 19.8613 11.6689 19.7861 11.6143 19.6904C11.5596 19.5993 11.5322 19.4945 11.5322 19.376C11.5322 19.2074 11.5915 19.0592 11.71 18.9316L16.6865 14.0645L11.71 9.19727C11.5915 9.06966 11.5322 8.92155 11.5322 8.75293C11.5322 8.63444 11.5596 8.52962 11.6143 8.43848C11.6689 8.34277 11.7441 8.26758 11.8398 8.21289C11.9355 8.1582 12.0404 8.13086 12.1543 8.13086C12.332 8.13086 12.4824 8.1901 12.6055 8.30859L18.0195 13.6133C18.0833 13.6771 18.1312 13.7477 18.1631 13.8252C18.1995 13.8981 18.2178 13.9779 18.2178 14.0645Z" fill="white"/>
</svg>
